<?xml version="1.0" encoding="utf-8"?>
<svg version="1.0" width="275.000000pt" height="366.000000pt" viewBox="0 0 275.000000 366.000000" preserveAspectRatio="xMidYMid meet" xmlns="http://www.w3.org/2000/svg">
  <g transform="translate(0.000000,366.000000) scale(0.100000,-0.100000)" fill="#000000" stroke="none">
    <path d="M1415 2565 l-1320 -1086 -3 -255 -2 -256 27 22 c15 12 614 504 1330 1093 l1303 1071 0 248 c0 136 -3 248 -7 248 -5 0 -602 -489 -1328 -1085z" style="fill: rgb(200, 16, 46);"/>
    <path d="M208 3109 c-116 -95 -125 -105 -155 -172 -17 -40 -32 -76 -32 -80 -1 -5 35 21 79 58 44 37 80 64 80 60 0 -12 -52 -74 -60 -72 -11 3 -97 -64 -104 -80 -9 -22 3 -14 54 33 51 48 65 49 30 4 -18 -23 -20 -42 -19 -230 l0 -205 67 -53 c37 -30 70 -54 74 -55 4 -1 53 36 108 82 56 46 103 81 106 78 3 -3 -40 -42 -95 -87 -108 -89 -141 -133 -40 -53 93 72 152 130 145 141 -3 6 18 30 46 53 54 45 52 39 -14 -42 -35 -43 -38 -52 -38 -108 0 -33 3 -61 6 -61 3 0 32 21 64 48 l59 47 0 91 1 91 57 46 c32 25 58 45 60 44 1 -2 3 -94 3 -205 1 -152 4 -201 13 -195 20 12 180 144 220 182 40 38 49 35 17 -6 -14 -19 -20 -41 -20 -79 0 -30 3 -54 6 -54 4 0 33 21 65 48 l59 47 0 91 0 91 125 103 125 102 0 152 -1 151 -61 48 c-53 41 -63 45 -77 34 -9 -8 -67 -55 -128 -106 l-113 -92 0 -197 0 -197 -34 -27 c-19 -16 -37 -28 -40 -28 -3 0 -7 120 -9 268 l-3 267 -1 -274 c-1 -150 -4 -276 -7 -279 -3 -3 -6 125 -6 285 l0 289 -65 52 -65 52 -125 -102 -125 -103 0 -197 0 -197 -72 -61 c-40 -34 -79 -64 -86 -67 -7 -3 -26 7 -43 23 l-29 28 0 284 0 284 51 -41 51 -40 56 45 c32 26 58 50 60 54 2 4 -19 26 -47 49 l-49 41 -124 -101z m445 -74 l37 -30 0 -95 0 -96 -44 -37 c-25 -20 -47 -37 -50 -37 -3 0 -7 73 -9 163 l-3 162 -1 -168 c-1 -93 -4 -171 -7 -174 -3 -4 -6 80 -6 186 l0 192 23 -18 c12 -10 39 -31 60 -48z m470 15 l46 -35 1 -101 0 -101 -47 -40 c-27 -21 -54 -43 -60 -47 -10 -6 -13 34 -13 184 0 159 2 190 14 183 7 -4 34 -24 59 -43z m-99 -472 c-22 -37 -57 -77 -64 -73 -4 3 -63 -40 -130 -96 -67 -55 -124 -99 -126 -96 -4 4 313 274 324 276 2 1 0 -5 -4 -11z" style="fill: rgb(45, 41, 38);"/>
    <path d="M1060 2910 c0 -112 3 -169 10 -165 6 4 10 70 10 165 0 95 -4 161 -10 165 -7 4 -10 -53 -10 -165z" style="fill: rgb(45, 41, 38);"/>
    <path d="M380 3059 c-34 -28 -59 -53 -56 -56 4 -4 136 96 136 104 0 12 -28 -4 -80 -48z" style="fill: rgb(45, 41, 38);"/>
    <path d="M1322 2954 l-2 -142 -130 -107 -130 -107 0 -91 0 -92 -65 -53 c-36 -29 -65 -57 -65 -62 0 -6 34 17 75 51 l75 62 0 91 0 92 114 92 c63 51 119 99 125 106 8 9 11 61 8 157 l-3 144 -2 -141z" style="fill: rgb(45, 41, 38);"/>
    <path d="M224 2800 c0 -151 2 -213 3 -137 2 75 2 199 0 275 -1 75 -3 13 -3 -138z" style="fill: rgb(45, 41, 38);"/>
    <path d="M1430 1959 c-723 -594 -1319 -1084 -1323 -1088 -8 -8 276 -246 295 -246 6 0 536 432 1179 960 l1168 960 1 248 c0 136 -1 247 -3 247 -1 0 -594 -486 -1317 -1081z" style="fill: rgb(45, 41, 38);"/>
    <path d="M622 2622 l-42 -37 0 -87 0 -88 -70 -57 c-38 -32 -70 -61 -70 -66 0 -10 16 2 93 63 l56 45 1 90 0 89 43 37 c23 20 40 39 37 42 -3 3 -24 -11 -48 -31z" style="fill: rgb(45, 41, 38);"/>
    <path d="M1485 1399 c-533 -440 -981 -808 -994 -818 l-24 -18 148 -122 c82 -67 153 -120 160 -117 7 2 388 314 849 692 l836 688 0 248 c0 136 -1 248 -2 247 -2 0 -439 -361 -973 -800z" style="fill: rgb(200, 16, 46);"/>
    <path d="M1520 822 c-371 -305 -676 -557 -678 -561 -4 -11 298 -253 311 -248 12 6 998 815 1030 846 16 15 17 39 15 268 l-3 250 -675 -555z" style="fill: rgb(45, 41, 38);"/>
  </g>
</svg>